<svg xmlns="http://www.w3.org/2000/svg" viewBox="0 0 288 193.44"><defs><style>.cls-1{fill:#e6e7e7;}.cls-2{fill:#4d4d4d;}.cls-3{fill:#fff;}.cls-4{fill:#231f20;}</style></defs><title>weather_storm</title><g id="Layer_2" data-name="Layer 2"><g id="Layer_1-2" data-name="Layer 1"><path class="cls-1" d="M287.92,115.22a38.77,38.77,0,0,0-33.22-36h0a70.68,70.68,0,0,0-138.3-27.31,49,49,0,0,0-76.16,48.28,29.15,29.15,0,1,0-11.12,56.11H62.24a25.09,25.09,0,0,1,1.23-2.57l20.76-48.82a1.33,1.33,0,0,1,2.44,0l20.76,48.82a25.09,25.09,0,0,1,1.23,2.58h23.1l6.9-18.43a1.06,1.06,0,0,0-.76-1.41l-15.74-3.58a1.06,1.06,0,0,1-.55-1.75l37.63-41.42L181,65a1.06,1.06,0,0,1,1.79,1.07L173,92.52l-10.37,27.69a1.06,1.06,0,0,0,.76,1.41l15.74,3.58a1.06,1.06,0,0,1,.55,1.75L153,156.31h32.17a25.09,25.09,0,0,1,1.23-2.57l20.76-48.82a1.33,1.33,0,0,1,2.44,0l20.76,48.82a25.09,25.09,0,0,1,1.23,2.58h15.22c.8,0,1.61.08,2.4.08s1.62,0,2.4-.08A38.77,38.77,0,0,0,287.92,115.22Z"/><path class="cls-2" d="M105.71,159l-.13-.31a20.74,20.74,0,0,0-.89-2.33c-.24-.53-.49-1.06-.77-1.57l-17.44-41a1.11,1.11,0,0,0-2,0L67,154.74c-.28.51-.53,1-.77,1.57a20.75,20.75,0,0,0-.89,2.33l-.13.31h0a21.06,21.06,0,1,0,40.42,0Z"/><path class="cls-2" d="M228.64,159l-.13-.31a20.74,20.74,0,0,0-.89-2.33c-.24-.53-.49-1.06-.77-1.57l-17.44-41a1.11,1.11,0,0,0-2,0l-17.44,41c-.28.51-.53,1-.77,1.57a20.75,20.75,0,0,0-.89,2.33l-.13.31h0a21.06,21.06,0,1,0,40.42,0Z"/><path class="cls-3" d="M179.14,125.2l-15.74-3.58a1.06,1.06,0,0,1-.76-1.41L173,92.52l9.83-26.43A1.06,1.06,0,0,0,181,65l-21.8,24.71-37.63,41.42a1.06,1.06,0,0,0,.55,1.75l15.74,3.58a1.06,1.06,0,0,1,.76,1.41l-6.9,18.43-3.47,9.26L118.46,192a1.06,1.06,0,0,0,1.79,1.07l21.8-24.71L153,156.31l26.68-29.37A1.06,1.06,0,0,0,179.14,125.2Z"/></g><g id="Layer_2-2" data-name="Layer 2"><circle class="cls-4" cx="162.7" cy="43.2" r="12.05"/><circle class="cls-4" cx="220.44" cy="43.2" r="12.05"/><path d="M191.57,50.28a8.65,8.65,0,0,1,8.65,8.65H207a15.41,15.41,0,1,0-30.83,0h6.77A8.65,8.65,0,0,1,191.57,50.28Z"/></g></g></svg>