<svg xmlns="http://www.w3.org/2000/svg" viewBox="0 0 288 172.94"><defs><style>.cls-1{fill:#e6e7e7;}.cls-2{fill:#4d4d4d;}.cls-3{fill:#231f20;}</style></defs><title>weather_smolrain_1</title><g id="Layer_2" data-name="Layer 2"><g id="Layer_1-2" data-name="Layer 1"><path class="cls-1" d="M287.92,115.22a38.77,38.77,0,0,0-33.22-36h0a70.68,70.68,0,0,0-138.3-27.31,49,49,0,0,0-76.16,48.28,29.15,29.15,0,1,0-11.12,56.11h99.1a26,26,0,0,1,.77-11.13H129l.17-.39a25.87,25.87,0,0,1,2.05-4.83l21.55-50.67a1.38,1.38,0,0,1,2.53,0L176.81,140a25.87,25.87,0,0,1,2.05,4.83l.16.39H179a26,26,0,0,1,.77,11.13h67.07c.8,0,1.61.08,2.4.08s1.62,0,2.4-.08A38.77,38.77,0,0,0,287.92,115.22Z"/><path class="cls-2" d="M174.5,146l-.13-.31a20.93,20.93,0,0,0-1.66-3.9l-17.44-41a1.11,1.11,0,0,0-2,0l-17.44,41a20.93,20.93,0,0,0-1.66,3.9L134,146h0a21.06,21.06,0,1,0,40.42,0Z"/></g><g id="Layer_2-2" data-name="Layer 2"><circle class="cls-3" cx="159.1" cy="43.63" r="12.05"/><circle class="cls-3" cx="216.84" cy="43.63" r="12.05"/><path d="M188,50.72a8.65,8.65,0,0,1,8.65,8.65h6.77a15.41,15.41,0,1,0-30.83,0h6.77A8.65,8.65,0,0,1,188,50.72Z"/></g></g></svg>