<svg xmlns="http://www.w3.org/2000/svg" viewBox="0 0 428.09 175.19"><defs><style>.cls-1{fill:#999;}.cls-2{fill:#e6e7e7;}.cls-3{fill:#f2f2f2;}.cls-4{fill:#231f20;}</style></defs><title>weather_haze_1</title><g id="Layer_2" data-name="Layer 2"><g id="Layer_2-2" data-name="Layer 2"><path class="cls-1" d="M428,112.93A30.64,30.64,0,0,0,401.77,84.5h0a55.86,55.86,0,0,0-101-39.15A70.35,70.35,0,0,1,305,79.25h0a38.76,38.76,0,0,1,21.54,66.16h69c.63,0,1.27.07,1.9.07s1.28,0,1.9-.07A30.64,30.64,0,0,0,428,112.93Z"/><path class="cls-2" d="M338.2,115.22a38.77,38.77,0,0,0-33.22-36h0a70.68,70.68,0,0,0-138.3-27.31,49,49,0,0,0-61.53,4.83,55.8,55.8,0,0,1,30.41,35.87,38.73,38.73,0,0,1,60.19,38.15,23,23,0,0,1,31.43,25.53H297.1c.8,0,1.61.08,2.4.08s1.62,0,2.4-.08a38.79,38.79,0,0,0,36.29-41.09Z"/><path class="cls-3" d="M225.86,143.31a23,23,0,0,0-30.08-12.52,38.74,38.74,0,0,0-60.19-38.15,55.86,55.86,0,0,0-109.3,21.59h0a30.64,30.64,0,0,0,2.43,60.91c.62,0,1.27.07,1.9.07s1.27,0,1.9-.07h172a23,23,0,0,0,21.29-31.82Z"/><circle class="cls-4" cx="96.17" cy="107.49" r="9.01"/><circle class="cls-4" cx="367.02" cy="69.18" r="9.01"/><circle class="cls-4" cx="338.27" cy="46.6" r="9.01"/><circle class="cls-4" cx="270.36" cy="51.59" r="9.01"/><circle class="cls-4" cx="54.68" cy="107.49" r="9.01"/><circle class="cls-4" cx="227.6" cy="51.16" r="9.01"/><path d="M75.71,130a12,12,0,0,0,12-12h-24A12,12,0,0,0,75.71,130Z"/><path d="M249.33,75.19a12,12,0,0,0,12-12h-24A12,12,0,0,0,249.33,75.19Z"/><path d="M336.23,76.87a12,12,0,0,0,17-.95l-17.92-16A12,12,0,0,0,336.23,76.87Z"/></g></g></svg>