<svg xmlns="http://www.w3.org/2000/svg" viewBox="0 0 479.1 260.18"><defs><style>.cls-1{fill:#e6e7e8;}.cls-2{fill:#231f20;}</style></defs><title>weather_cloudy</title><g id="Layer_2" data-name="Layer 2"><g id="Layer_1-2" data-name="Layer 1"><g id="Layer_2-2" data-name="Layer 2"><g id="Layer_1-2-2" data-name="Layer 1-2"><path class="cls-1" d="M423.78,131.83A117.58,117.58,0,0,0,193.7,86.39,81.53,81.53,0,0,0,67,166.7,48.5,48.5,0,1,0,48.5,260H410.61c1.33.08,2.68.14,4,.14s2.7-.06,4-.14a64.49,64.49,0,0,0,5.11-128.21Z"/></g></g><circle class="cls-2" cx="392.33" cy="88.24" r="15.33"/><circle class="cls-2" cx="319.56" cy="87.51" r="15.33"/><path d="M356.54,128.4A20.46,20.46,0,0,0,377,107.94H336.08A20.46,20.46,0,0,0,356.54,128.4Z"/></g></g></svg>