<svg xmlns="http://www.w3.org/2000/svg" viewBox="0 0 288 174.69"><defs><style>.cls-1{fill:none;}.cls-2{fill:#e6e7e7;}.cls-3{fill:#4d4d4d;}.cls-4{fill:#231f20;}</style></defs><title>weather_heavyrain</title><g id="Layer_2" data-name="Layer 2"><g id="Layer_1-2" data-name="Layer 1"><g id="Layer_2-2" data-name="Layer 2"><g id="Layer_1-2-2" data-name="Layer 1-2"><path class="cls-1" d="M178.79,110.5l-.16-.39a25.87,25.87,0,0,0-2.05-4.83L155,54.62a1.38,1.38,0,0,0-2.53,0l-21.55,50.67a25.87,25.87,0,0,0-2.05,4.83l-.16.39h.05a26,26,0,1,0,50,0ZM154,138.25a21.06,21.06,0,0,1-20.21-27h0l.13-.31a20.93,20.93,0,0,1,1.66-3.9L153,66a1.11,1.11,0,0,1,2,0l17.44,41a20.93,20.93,0,0,1,1.66,3.9l.13.31h0a21.06,21.06,0,0,1-20.21,27Z"/><path class="cls-2" d="M287.92,115.2a38.77,38.77,0,0,0-33.22-36h0A70.68,70.68,0,0,0,116.4,51.89a49,49,0,0,0-76.16,48.28,29.15,29.15,0,1,0-11.12,56.11h51.6c-.05-.67-.09-1.35-.09-2a26,26,0,0,1,1-7.32h-.05l.17-.39a25.87,25.87,0,0,1,2.05-4.83l21.6-50.68a1.38,1.38,0,0,1,2.53,0l21.55,50.67a25.87,25.87,0,0,1,2.05,4.83l.16.39h-.05a26,26,0,0,1,1.05,7.32,14.44,14.44,0,0,1-.09,2h45.46a26.33,26.33,0,0,1-.13-2.64,26,26,0,0,1,1.05-7.32h-.05l.17-.39a25.87,25.87,0,0,1,2.05-4.83L202.7,90.46a1.38,1.38,0,0,1,2.53,0l21.55,50.67a25.87,25.87,0,0,1,2.05,4.83l.16.39h-.05a26,26,0,0,1,1.05,7.32,26.33,26.33,0,0,1-.13,2.64h17c.8,0,1.61.08,2.4.08a24,24,0,0,0,2.4-.08A38.77,38.77,0,0,0,287.92,115.2ZM153.75,143.85a26,26,0,0,1-25-33.35h-.05l.16-.39a25.87,25.87,0,0,1,2.05-4.83l21.55-50.67a1.38,1.38,0,0,1,2.53,0l21.55,50.67a25.87,25.87,0,0,1,2.05,4.83l.16.39h-.05a26,26,0,0,1-25,33.35Z"/><path class="cls-3" d="M174.25,111.27l-.13-.31a20.93,20.93,0,0,0-1.66-3.9L155,66.06a1.11,1.11,0,0,0-2,0l-17.44,41a20.93,20.93,0,0,0-1.66,3.9l-.13.31h0a21.06,21.06,0,1,0,40.42,0Z"/><path class="cls-3" d="M126.92,147.71l-.13-.31a20.93,20.93,0,0,0-1.66-3.9l-17.44-41a1.11,1.11,0,0,0-2,0l-17.44,41a20.93,20.93,0,0,0-1.66,3.9l-.13.31h0a21.06,21.06,0,1,0,40.42,0Z"/><path class="cls-3" d="M224.25,147.71l-.13-.31a20.93,20.93,0,0,0-1.66-3.9L205,102.5a1.11,1.11,0,0,0-2,0l-17.44,41a20.93,20.93,0,0,0-1.66,3.9l-.13.31h0a21.06,21.06,0,1,0,40.42,0Z"/></g></g><circle class="cls-4" cx="179.01" cy="26.44" r="12.05" transform="matrix(0.59, -0.8, 0.8, 0.59, 51.38, 154.71)"/><circle class="cls-4" cx="225.45" cy="60.74" r="12.05" transform="translate(42.63 205.99) rotate(-53.55)"/><path d="M198,49.29a8.65,8.65,0,0,1,1.82,12.09l5.44,4a15.41,15.41,0,1,0-24.8-18.32l5.44,4A8.65,8.65,0,0,1,198,49.29Z"/></g></g></svg>