<svg xmlns="http://www.w3.org/2000/svg" viewBox="0 0 121.35 103.71"><defs><style>.cls-1{fill:#fff;}.cls-2{fill:#e6e7e8;stroke:#e6e7e8;}.cls-2,.cls-3{stroke-miterlimit:10;}.cls-3{fill:#a6a6a6;stroke:#a6a6a6;stroke-width:0.25px;}.cls-4{fill:#231f20;}</style></defs><title>weather_standard</title><g id="Layer_2" data-name="Layer 2"><g id="Layer_1-2" data-name="Layer 1"><g id="Layer_2-2" data-name="Layer 2"><g id="Layer_1-2-2" data-name="Layer 1-2"><g id="Layer_2-2-2" data-name="Layer 2-2"><g id="Layer_1-2-2-2" data-name="Layer 1-2-2"><circle class="cls-1" cx="48.09" cy="47.52" r="28.25"/><path class="cls-1" d="M56.4,13.53,48.85.44a.88.88,0,0,0-1.52,0L39.77,13.53a35,35,0,0,1,16.64,0Z"/><path class="cls-1" d="M29.74,17.72l-14.18-3.8A.88.88,0,0,0,14.49,15l3.8,14.18A35.17,35.17,0,0,1,29.74,17.72Z"/><path class="cls-1" d="M14.18,38.82.44,46.76a.88.88,0,0,0,0,1.52l13.75,7.94a35.22,35.22,0,0,1,0-17.39Z"/><path class="cls-1" d="M18.18,65.7,14.11,80.9A.88.88,0,0,0,15.18,82l15.44-4.14A35.16,35.16,0,0,1,18.18,65.7Z"/><path class="cls-1" d="M39.39,81.42l7.94,13.75a.88.88,0,0,0,1.52,0l7.94-13.75a35.22,35.22,0,0,1-17.39,0Z"/><path class="cls-1" d="M82,56.21l13.75-7.94a.88.88,0,0,0,0-1.52L82,38.82A35.22,35.22,0,0,1,82,56.21Z"/><path class="cls-1" d="M78.41,30.06l4.14-15.44a.88.88,0,0,0-1.07-1.07l-15.2,4.07A35.16,35.16,0,0,1,78.41,30.06Z"/><path class="cls-1" d="M66.24,77.44l14.61,3.91a.88.88,0,0,0,1.07-1.07L78,65.67A35.17,35.17,0,0,1,66.24,77.44Z"/><path class="cls-2" d="M45.72,81.13A26.86,26.86,0,0,1,37.47,67,15.22,15.22,0,1,0,48.11,95a18.42,18.42,0,0,1-2.4-14Z"/><path class="cls-2" d="M51.37,71.5A18.44,18.44,0,0,1,72.7,69.11,26.77,26.77,0,0,1,79.09,53a18.48,18.48,0,0,1,1.34-12.9,26.88,26.88,0,0,0-43,26.9,15.2,15.2,0,0,1,13.9,4.45Z"/><path class="cls-2" d="M45.72,81.13a18.43,18.43,0,0,1,5.66-9.63A15.2,15.2,0,0,0,37.47,67,26.86,26.86,0,0,0,45.72,81.13Z"/><path class="cls-2" d="M86.51,46.91a26.86,26.86,0,0,1,28.87,1.79v-.37a18.45,18.45,0,0,0-35-8.22A27,27,0,0,1,86.51,46.91Z"/><path class="cls-2" d="M79.09,53a27,27,0,0,1,7.42-6.07,27,27,0,0,0-6.08-6.81A18.48,18.48,0,0,0,79.09,53Z"/><path class="cls-3" d="M81.68,81.13a18.47,18.47,0,0,1,.46,4.09,11.06,11.06,0,0,1-.08,1.63,15.1,15.1,0,0,1,4-1.35,26.94,26.94,0,0,1-.52-8.64A27,27,0,0,1,81.68,81.13Z"/><path class="cls-3" d="M121,54.14a27.06,27.06,0,0,0-5.57-5.45,18.46,18.46,0,0,1-.55,4.13A26.86,26.86,0,0,1,121,54.14Z"/><path class="cls-3" d="M79.09,53a26.77,26.77,0,0,0-6.4,16.13,18.47,18.47,0,0,1,9,12,27,27,0,0,0,3.83-4.28,26.71,26.71,0,0,1,4-11.63A18.48,18.48,0,0,1,79.09,53Z"/><path class="cls-3" d="M86.51,46.91a26.75,26.75,0,0,1,4.08,14.23,27.2,27.2,0,0,1-.14,2.74A26.85,26.85,0,0,1,112.27,52.7a16.89,16.89,0,0,1,2.57.13,18.46,18.46,0,0,0,.55-4.13,26.86,26.86,0,0,0-28.87-1.79Z"/><path class="cls-3" d="M86.51,46.91A27,27,0,0,0,79.09,53,18.48,18.48,0,0,0,89.54,65.22q.43-.68.91-1.34a27.2,27.2,0,0,0,.14-2.74A26.75,26.75,0,0,0,86.51,46.91Z"/><path class="cls-3" d="M63.7,88a26.83,26.83,0,0,1-8.82-1.49A15.25,15.25,0,0,1,48.12,95a18.44,18.44,0,0,0,25.44,5.73l.16-.1v-.27a15.19,15.19,0,0,1,5.88-12,27,27,0,0,1-2.84-3.77A26.76,26.76,0,0,1,63.7,88Z"/><path class="cls-3" d="M54.88,86.54a26.86,26.86,0,0,1-9.16-5.42,18.42,18.42,0,0,0,2.4,13.95A15.25,15.25,0,0,0,54.88,86.54Z"/><path class="cls-3" d="M51.37,71.5a15.22,15.22,0,0,1,3.5,15,26.89,26.89,0,0,0,21.87-1.89,26.75,26.75,0,0,1-4.08-14.24v-1.3A18.44,18.44,0,0,0,51.37,71.5Z"/><path class="cls-3" d="M51.37,71.5a18.43,18.43,0,0,0-5.66,9.63,26.86,26.86,0,0,0,9.16,5.42,15.22,15.22,0,0,0-3.5-15Z"/><path class="cls-3" d="M81.68,81.13a27,27,0,0,1-4.94,3.53,27,27,0,0,0,2.84,3.77,15.22,15.22,0,0,1,2.49-1.58c0-.54.08-1.08.08-1.63A18.47,18.47,0,0,0,81.68,81.13Z"/><path class="cls-3" d="M76.74,84.65a27,27,0,0,0,4.94-3.53,18.47,18.47,0,0,0-9-12v1.3A26.75,26.75,0,0,0,76.74,84.65Z"/></g></g></g></g><circle class="cls-4" cx="40.95" cy="80.07" r="2.7" transform="translate(-41.57 44.31) rotate(-39.49)"/><circle class="cls-4" cx="30.97" cy="88.13" r="2.7" transform="translate(-48.97 39.81) rotate(-39.49)"/><path d="M40.58,89.55a3.61,3.61,0,0,0,.49-5.08l-5.57,4.59A3.61,3.61,0,0,0,40.58,89.55Z"/><circle class="cls-4" cx="48.19" cy="22.7" r="2.7" transform="translate(-3.43 35.82) rotate(-39.49)"/><circle class="cls-4" cx="38.21" cy="30.75" r="2.7" transform="translate(-10.84 31.32) rotate(-39.49)"/><path d="M47.82,32.17a3.61,3.61,0,0,0,.49-5.08l-5.57,4.59A3.61,3.61,0,0,0,47.82,32.17Z"/><circle class="cls-4" cx="100.96" cy="47.63" r="2.7" transform="translate(-9.46 31.22) rotate(-16.81)"/><circle class="cls-4" cx="88.64" cy="51.22" r="2.7" transform="translate(-11.02 27.82) rotate(-16.81)"/><path d="M97,56.23a3.61,3.61,0,0,0,2.41-4.5l-6.91,2.09A3.61,3.61,0,0,0,97,56.23Z"/><circle class="cls-1" cx="102.16" cy="73.86" r="2.7" transform="translate(-16.99 32.69) rotate(-16.81)"/><circle class="cls-1" cx="89.84" cy="77.44" r="2.7" transform="translate(-18.55 29.28) rotate(-16.81)"/><path class="cls-1" d="M98.17,82.46a3.61,3.61,0,0,0,2.41-4.5L93.67,80A3.61,3.61,0,0,0,98.17,82.46Z"/></g></g></svg>