<svg xmlns="http://www.w3.org/2000/svg" viewBox="0 0 310.04 71.95"><defs><style>.cls-1{fill:none;}.cls-2{fill:#fff;}</style></defs><title>left_state</title><g id="Layer_2" data-name="Layer 2"><g id="Layer_1-2" data-name="Layer 1"><rect class="cls-1" x="23.98" y="23.98" width="23.98" height="23.98"/><rect class="cls-2" x="23.98" y="47.96" width="23.98" height="23.98"/><rect class="cls-2" x="95.93" y="23.98" width="23.98" height="23.98"/><polygon class="cls-2" points="71.95 0 47.96 0 23.98 0 23.98 23.98 47.96 23.98 47.96 47.96 71.95 47.96 71.95 23.98 95.93 23.98 95.93 0 71.95 0"/><rect class="cls-2" y="23.98" width="23.98" height="23.98"/><rect class="cls-1" x="214.11" y="23.98" width="23.98" height="23.98"/><rect class="cls-2" x="214.11" y="47.96" width="23.98" height="23.98"/><rect class="cls-2" x="286.05" y="23.98" width="23.98" height="23.98"/><polygon class="cls-2" points="262.07 0 238.09 0 214.11 0 214.11 23.98 238.09 23.98 238.09 47.96 262.07 47.96 262.07 23.98 286.05 23.98 286.05 0 262.07 0"/><rect class="cls-2" x="190.13" y="23.98" width="23.98" height="23.98"/></g></g></svg>