<svg xmlns="http://www.w3.org/2000/svg" viewBox="0 0 61.68 61.68"><defs><style>.cls-1{fill:#fff;}.cls-2{fill:#d71e4f;}.cls-3{fill:#d6466f;}</style></defs><title>covid_logo</title><g id="Layer_2" data-name="Layer 2"><g id="Layer_2-2" data-name="Layer 2"><circle class="cls-1" cx="30.84" cy="30.84" r="30.84"/><path class="cls-2" d="M46.39,30.84A3.3,3.3,0,0,1,49,27l.29,0A18.15,18.15,0,0,0,34.76,12.41a3.28,3.28,0,0,1-6.54,0,18.07,18.07,0,0,0-8.47,4A3.27,3.27,0,0,1,16,20.75a18.14,18.14,0,0,0,6,25,3.29,3.29,0,0,1,6.08,2.35A18.13,18.13,0,0,0,49.33,33.53,3.29,3.29,0,0,1,46.39,30.84ZM21.79,38.64a3.3,3.3,0,1,1,2.66-3.83A3.3,3.3,0,0,1,21.79,38.64Zm12.41-14a3.3,3.3,0,1,1-2.66,3.83A3.3,3.3,0,0,1,34.21,24.64Zm.59,20.47a3.3,3.3,0,1,1,3.3-3.3A3.3,3.3,0,0,1,34.79,45.11Z"/><path class="cls-3" d="M31.49,15.41a3.29,3.29,0,0,0,3.27-3c0-.1,0-.2,0-.3a3.3,3.3,0,0,0-6.6,0c0,.1,0,.2,0,.3A3.29,3.29,0,0,0,31.49,15.41Z"/><circle class="cls-3" cx="34.79" cy="41.81" r="3.3"/><circle class="cls-3" cx="21.21" cy="35.39" r="3.3" transform="translate(-5.95 4.33) rotate(-10.23)"/><circle class="cls-3" cx="34.79" cy="27.89" r="3.3" transform="translate(-4.4 6.63) rotate(-10.23)"/><path class="cls-3" d="M28.14,46.73a3.31,3.31,0,1,0,0,1.34A3.3,3.3,0,0,0,28.14,46.73Z"/><path class="cls-3" d="M52.88,29.67A3.29,3.29,0,0,0,49.33,27L49,27a3.29,3.29,0,0,0,.29,6.52,3.27,3.27,0,0,0,.89,0A3.3,3.3,0,0,0,52.88,29.67Z"/><path class="cls-3" d="M17.24,20.76a3.33,3.33,0,1,0-1.2,0A3.3,3.3,0,0,0,17.24,20.76Z"/></g></g></svg>