<svg xmlns="http://www.w3.org/2000/svg" viewBox="0 0 61.03 61.03"><defs><style>.cls-1{fill:#fff;}.cls-2{fill:#ffee9c;}.cls-3{fill:#ded39f;}.cls-4{fill:#dbc878;}.cls-5{font-size:10.26px;fill:#231f20;font-family:Oswald-Regular, Oswald;}</style></defs><title>news_logo</title><g id="Layer_2" data-name="Layer 2"><g id="Layer_2-2" data-name="Layer 2"><path class="cls-1" d="M30.52,0A30.52,30.52,0,1,0,61,30.52,30.52,30.52,0,0,0,30.52,0ZM51.12,40.17,29.18,53.36a3.07,3.07,0,0,1-4.21-1L18.23,41.1A.79.79,0,0,1,18.5,40l2-1.17L10.2,21.78a.84.84,0,0,1,.29-1.15l23.28-14a.84.84,0,0,1,1.15.29l17.31,28.8A3.23,3.23,0,0,1,51.12,40.17Z"/><path class="cls-2" d="M36.32,32a15.86,15.86,0,0,0-1.52-2.23,3.44,3.44,0,0,0-1.08-1,8.81,8.81,0,0,0-5.15-.58.92.92,0,0,0-.82,1.08.91.91,0,0,0,1.14.68,6.9,6.9,0,0,1,1.28-.12A8.28,8.28,0,0,1,35,31.44,2.36,2.36,0,0,0,36.32,32Z"/><path class="cls-2" d="M43,38.21l-1.66-2.66h0c-1.1-1.75-2.22-3.49-3.27-5.27a13,13,0,0,0-5-4.9c-.64-.35-1.25-.76-1.88-1.12a.83.83,0,0,0-1,.07.85.85,0,0,0-.23.94,1,1,0,0,0,.49.49c1,.64,2.12,1.23,3.13,1.92a9.21,9.21,0,0,1,2.59,2.71c.33.52.64,1,1,1.56a.55.55,0,0,1-.69.85,5.32,5.32,0,0,0-7,6.35.87.87,0,0,0,1,.64.85.85,0,0,0,.55-1.08A3.71,3.71,0,0,1,32.5,34.8a2.91,2.91,0,0,1,3.5,0,4.11,4.11,0,0,1,1.85,3.6,2.74,2.74,0,0,1-1.36,2.32,10.3,10.3,0,0,1-1.36.81,2.32,2.32,0,0,1-2.89-.91.87.87,0,0,0-1.05-.33.85.85,0,0,0-.46.94,1.9,1.9,0,0,0,.46.73,9.29,9.29,0,0,0,2.31,1.74c1.14.68,2.35,1.21,3.52,1.84a.34.34,0,0,0,.39,0c1.95-1.22,3.9-2.42,5.85-3.65.86-.55,0-3.2-.24-3.61Z"/><path class="cls-2" d="M52.23,35.73,34.92,6.93a.84.84,0,0,0-1.15-.29l-23.28,14a.84.84,0,0,0-.29,1.15L20.46,38.84,26,48.09l1.58,2.63,1.58,2.63L51.12,40.17A3.23,3.23,0,0,0,52.23,35.73Zm-8.45,6.58c-2.07,1.33-4.17,2.61-6.25,3.92a.48.48,0,0,1-.49,0,27.53,27.53,0,0,1-6-3.45,4.48,4.48,0,0,1-.85-1A1.46,1.46,0,0,1,30,40.7c0-.15,0-.19-.15-.23a1.56,1.56,0,0,1-1.12-1.22,6,6,0,0,1,2.84-6.67,6.48,6.48,0,0,1,2.55-.81.68.68,0,0,0-.32-.23,7,7,0,0,0-4.93-.92,1.58,1.58,0,0,1-1.84-1.27,1.61,1.61,0,0,1,1.29-1.87,9.58,9.58,0,0,1,3.24-.09s.09,0,.1,0,0-.07-.09-.07c-.53-.33-1-.68-1.59-1a1.57,1.57,0,0,1-.6-2.17,1.54,1.54,0,0,1,2.18-.47,40.4,40.4,0,0,1,4,2.54,12,12,0,0,1,2.7,3.06l3.93,6.32.1.16L43.1,37h0c.48.81,1,1.56,1.45,2.41A2.25,2.25,0,0,1,43.78,42.31Z"/><path class="cls-2" d="M31.89,39.52a1.68,1.68,0,0,1,1,.75,1.6,1.6,0,0,0,1.89.59,5.14,5.14,0,0,0,.8-.49v0l.47-.29a2.18,2.18,0,0,0,1.06-2.31,3.54,3.54,0,0,0-1.38-2.36,2.2,2.2,0,0,0-2-.45,2.94,2.94,0,0,0-2,3.44,2,2,0,0,1,.05.92C31.75,39.46,31.79,39.49,31.89,39.52Z"/><path class="cls-3" d="M26,48.09l-5.56-9.25L18.5,40a.79.79,0,0,0-.27,1.08L25,52.31a3.07,3.07,0,0,0,4.21,1L27.6,50.72Z"/><path class="cls-4" d="M43.11,37h0l-.79-1.27-.1-.16-3.93-6.32a12,12,0,0,0-2.7-3.06,40.4,40.4,0,0,0-4-2.54,1.54,1.54,0,0,0-2.18.47,1.57,1.57,0,0,0,.6,2.17c.54.31,1.06.65,1.59,1,0,0,.1,0,.09.07s-.07,0-.1,0a9.58,9.58,0,0,0-3.24.09,1.61,1.61,0,0,0-1.29,1.87,1.58,1.58,0,0,0,1.84,1.27,7,7,0,0,1,4.93.92.68.68,0,0,1,.32.23,6.48,6.48,0,0,0-2.55.81,6,6,0,0,0-2.84,6.67,1.56,1.56,0,0,0,1.12,1.22c.14,0,.18.08.15.23a1.46,1.46,0,0,0,.2,1.11,4.48,4.48,0,0,0,.85,1,27.53,27.53,0,0,0,6,3.45.48.48,0,0,0,.49,0c2.08-1.3,4.18-2.59,6.25-3.92a2.25,2.25,0,0,0,.79-2.86C44.16,38.6,43.59,37.85,43.11,37ZM30.17,29.78a6.9,6.9,0,0,0-1.28.12.91.91,0,0,1-1.14-.68.92.92,0,0,1,.82-1.08,8.81,8.81,0,0,1,5.15.58,3.44,3.44,0,0,1,1.08,1A15.86,15.86,0,0,1,36.32,32,2.36,2.36,0,0,1,35,31.44,8.28,8.28,0,0,0,30.17,29.78Zm13.07,12c-1.94,1.23-3.9,2.43-5.85,3.65a.34.34,0,0,1-.39,0c-1.16-.63-2.38-1.16-3.52-1.84a9.29,9.29,0,0,1-2.31-1.74,1.9,1.9,0,0,1-.46-.73.85.85,0,0,1,.46-.94.87.87,0,0,1,1.05.33,2.32,2.32,0,0,0,2.89.91,10.3,10.3,0,0,0,1.36-.81,2.74,2.74,0,0,0,1.36-2.32A4.11,4.11,0,0,0,36,34.76a2.91,2.91,0,0,0-3.5,0,3.71,3.71,0,0,0-1.43,3.91.85.85,0,0,1-.55,1.08.87.87,0,0,1-1-.64,5.32,5.32,0,0,1,7-6.35.55.55,0,0,0,.69-.85c-.33-.52-.65-1-1-1.56a9.21,9.21,0,0,0-2.59-2.71c-1-.69-2.09-1.28-3.13-1.92a1,1,0,0,1-.49-.49.85.85,0,0,1,.23-.94.83.83,0,0,1,1-.07c.63.37,1.24.77,1.88,1.12a13,13,0,0,1,5,4.9c1,1.78,2.17,3.52,3.27,5.27h0L43,38.21h0C43.26,38.62,44.11,41.28,43.25,41.82Zm-11.52-3.4a2.94,2.94,0,0,1,2-3.44,2.2,2.2,0,0,1,2,.45,3.54,3.54,0,0,1,1.38,2.36,2.18,2.18,0,0,1-1.06,2.31l-.47.29v0a5.14,5.14,0,0,1-.8.49,1.6,1.6,0,0,1-1.89-.59,1.68,1.68,0,0,0-1-.75c-.11,0-.14-.05-.11-.17A2,2,0,0,0,31.73,38.43Z"/><text class="cls-5" transform="translate(18.59 28.69) rotate(-31.01)">NEWS</text></g></g></svg>