<svg xmlns="http://www.w3.org/2000/svg" viewBox="0 0 61.03 61.03"><defs><style>.cls-1{fill:#fff;}.cls-2{fill:#5fa8d9;}</style></defs><title>twitter_logo</title><g id="Layer_2" data-name="Layer 2"><g id="Layer_2-2" data-name="Layer 2"><path class="cls-1" d="M30.52,0A30.52,30.52,0,1,0,61,30.52,30.52,30.52,0,0,0,30.52,0ZM50.75,18A17.09,17.09,0,0,1,49,20a14.8,14.8,0,0,1-1.76,1.5.34.34,0,0,0-.17.33c0,.29,0,.58,0,.88A23.61,23.61,0,0,1,46.49,28a24.86,24.86,0,0,1-2.21,5.9A24,24,0,0,1,41.54,38a22.55,22.55,0,0,1-4.27,4A22,22,0,0,1,34,44a22.53,22.53,0,0,1-2.83,1.14,23.27,23.27,0,0,1-3.54.86q-1,.16-2,.24c-.87.07-1.73.1-2.6.08a24.41,24.41,0,0,1-2.62-.2A23.3,23.3,0,0,1,15.65,45,22.86,22.86,0,0,1,11.5,43l-.65-.4a17,17,0,0,0,12.22-3.47c-.22,0-.4,0-.57,0a7.94,7.94,0,0,1-3.21-1,8.27,8.27,0,0,1-3.88-4.54l0-.09c0-.11,0-.13.1-.12.29.05.59.08.88.1a7.62,7.62,0,0,0,1.38,0,7.18,7.18,0,0,0,1.17-.21s.07,0,.08-.05a8.79,8.79,0,0,1-1.07-.31,8.33,8.33,0,0,1-5.4-6.56,11.33,11.33,0,0,1-.09-1.23c0-.09,0-.14.12-.08a8.19,8.19,0,0,0,2.52.87c.31.05.62.07.93.11,0,0,.07,0,.08,0s0-.07-.07-.09a7.92,7.92,0,0,1-1.19-1,8.26,8.26,0,0,1-2.18-4.23A7.91,7.91,0,0,1,12.47,19a8.31,8.31,0,0,1,1.06-4c.06-.11.09-.11.17,0a23.31,23.31,0,0,0,3,3A23.48,23.48,0,0,0,20,20.4,23.35,23.35,0,0,0,23.36,22a23.81,23.81,0,0,0,2.73.88,23.17,23.17,0,0,0,2.81.53c.52.07,1,.1,1.56.15h.13c.1,0,.12,0,.09-.12a7,7,0,0,1-.17-1.11,8.9,8.9,0,0,1,0-1.25A8.15,8.15,0,0,1,30.94,19a8.32,8.32,0,0,1,13-3.84,6.4,6.4,0,0,1,.81.74A.26.26,0,0,0,45,16a17.77,17.77,0,0,0,2.78-.85A16.59,16.59,0,0,0,50,14.06l.08,0a8.46,8.46,0,0,1-3.56,4.55,17.55,17.55,0,0,0,4.66-1.23C51.06,17.58,50.91,17.8,50.75,18Z"/><path class="cls-2" d="M50.12,14l-.08,0a16.59,16.59,0,0,1-2.25,1.1A17.77,17.77,0,0,1,45,16a.26.26,0,0,1-.28-.09,6.4,6.4,0,0,0-.81-.74,8.17,8.17,0,0,0-3.81-1.66A8.3,8.3,0,0,0,30.94,19a8.15,8.15,0,0,0-.43,2.09,8.9,8.9,0,0,0,0,1.25,7,7,0,0,0,.17,1.11c0,.09,0,.13-.09.12h-.13c-.52,0-1-.08-1.56-.15a23.17,23.17,0,0,1-2.81-.53A23.81,23.81,0,0,1,23.36,22,23.35,23.35,0,0,1,20,20.4a23.48,23.48,0,0,1-3.27-2.32,23.31,23.31,0,0,1-3-3c-.07-.09-.11-.09-.17,0a8.31,8.31,0,0,0-1.06,4,7.91,7.91,0,0,0,.15,1.62,8.26,8.26,0,0,0,2.18,4.23,7.92,7.92,0,0,0,1.19,1s.08,0,.07.09S16,26,16,26c-.31,0-.62-.05-.93-.11A8.19,8.19,0,0,1,12.53,25c-.12-.06-.12,0-.12.08a11.33,11.33,0,0,0,.09,1.23,8.33,8.33,0,0,0,5.4,6.56,8.79,8.79,0,0,0,1.07.31c0,.06-.05,0-.08.05a7.18,7.18,0,0,1-1.17.21,7.62,7.62,0,0,1-1.38,0c-.3,0-.59,0-.88-.1-.09,0-.15,0-.1.12l0,.09a8.27,8.27,0,0,0,3.88,4.54,7.94,7.94,0,0,0,3.21,1c.18,0,.36,0,.57,0a17,17,0,0,1-12.22,3.47l.65.4A22.86,22.86,0,0,0,15.65,45a23.3,23.3,0,0,0,4.79,1.15,24.41,24.41,0,0,0,2.62.2c.87,0,1.73,0,2.6-.08q1-.08,2-.24a23.27,23.27,0,0,0,3.54-.86A22.53,22.53,0,0,0,34,44a22,22,0,0,0,3.27-1.95,22.55,22.55,0,0,0,4.27-4,24,24,0,0,0,2.75-4.13A24.86,24.86,0,0,0,46.49,28a23.61,23.61,0,0,0,.64-5.32c0-.29,0-.59,0-.88a.34.34,0,0,1,.17-.33A14.8,14.8,0,0,0,49,20a17.09,17.09,0,0,0,1.72-2c.16-.21.31-.44.46-.66a17.55,17.55,0,0,1-4.66,1.23A8.46,8.46,0,0,0,50.12,14Z"/></g></g></svg>