<svg xmlns="http://www.w3.org/2000/svg" viewBox="0 0 61.03 61.03"><defs><style>.cls-1{fill:#fff;}.cls-2{fill:#fbb040;}.cls-3{fill:#ccc;}</style></defs><title>weather_logo</title><g id="Layer_2" data-name="Layer 2"><g id="Layer_2-2" data-name="Layer 2"><circle class="cls-1" cx="30.52" cy="30.52" r="30.52"/><path class="cls-2" d="M26.55,21.26c.27-.2.55-.37.83-.54a7.72,7.72,0,1,0-6.78,13.54A7.22,7.22,0,0,1,23,33.88,10.54,10.54,0,0,1,26.55,21.26Z"/><path class="cls-2" d="M13.71,26.89l.19-2.49-2.07,1.24-1.73,1a.23.23,0,0,0,0,.4l1.76,1L14,29.23Z"/><path class="cls-2" d="M13.95,19.89l.66,2.32,1.46-1.84L18,18.75l-2.34-.59-2-.49a.23.23,0,0,0-.28.28Z"/><path class="cls-2" d="M16.11,33.31l-1.63-1.89-.59,2.34-.49,2a.23.23,0,0,0,.28.28l1.94-.55,2.32-.66Z"/><path class="cls-2" d="M31.53,17.93a.23.23,0,0,0-.28-.28l-1.94.55L27,18.87l1.57,1.25a10.46,10.46,0,0,1,2.61-.75Z"/><path class="cls-2" d="M25,18,23.8,15.93l-1-1.73a.23.23,0,0,0-.4,0l-1,1.76-1.17,2.11,2.34-.27Z"/><path class="cls-3" d="M51,20.7a7.26,7.26,0,0,0-12.11.55,10.57,10.57,0,0,0-7.74-1.88,10.72,10.72,0,0,0-3.79,1.36c-.28.17-.56.34-.83.54A10.54,10.54,0,0,0,23,33.88a7.26,7.26,0,1,0,.51,14.48c1.13,1.11,4,.54,6.61-1.36a9.31,9.31,0,0,0,3.28-3.9,13.46,13.46,0,0,0,6.38-2.68,14.63,14.63,0,0,0,4.06-4.31,10.48,10.48,0,0,0,3.72-1.77c2.25-1.64,3.62-3.76,3.51-5.22A7.26,7.26,0,0,0,51,20.7Z"/></g></g></svg>